<svg preserveAspectRatio="none" width="100%" height="100%" overflow="visible" style="display: block;" viewBox="0 0 30.7126 29.5717" fill="none" xmlns="http://www.w3.org/2000/svg">
<g id="Group 28">
<g id="sparkle_8369316 (1) 16">
<path id="sparkle" d="M28.9398 7.13082L27.2523 6.64858C26.4924 6.43434 25.8001 6.02865 25.2418 5.47035C24.6835 4.91205 24.2778 4.21981 24.0636 3.45987L23.5814 1.77235C23.5571 1.7133 23.5158 1.66281 23.4628 1.62727C23.4098 1.59173 23.3474 1.57275 23.2836 1.57275C23.2198 1.57275 23.1574 1.59173 23.1044 1.62727C23.0513 1.66281 23.0101 1.7133 22.9858 1.77235L22.5036 3.45987C22.2893 4.21981 21.8837 4.91205 21.3254 5.47035C20.7671 6.02865 20.0748 6.43434 19.3149 6.64858L17.6274 7.13082C17.5626 7.14921 17.5055 7.18824 17.4649 7.24197C17.4243 7.29571 17.4023 7.36123 17.4023 7.42858C17.4023 7.49594 17.4243 7.56145 17.4649 7.61519C17.5055 7.66893 17.5626 7.70795 17.6274 7.72635L19.3149 8.20858C20.0748 8.42283 20.7671 8.82851 21.3254 9.38682C21.8837 9.94512 22.2893 10.6374 22.5036 11.3973L22.9858 13.0848C23.0042 13.1496 23.0432 13.2066 23.097 13.2473C23.1507 13.2879 23.2162 13.3098 23.2836 13.3098C23.3509 13.3098 23.4165 13.2879 23.4702 13.2473C23.5239 13.2066 23.563 13.1496 23.5814 13.0848L24.0636 11.3973C24.2778 10.6374 24.6835 9.94512 25.2418 9.38682C25.8001 8.82851 26.4924 8.42283 27.2523 8.20858L28.9398 7.72635C29.0046 7.70795 29.0617 7.66893 29.1023 7.61519C29.1429 7.56145 29.1648 7.49594 29.1648 7.42858C29.1648 7.36123 29.1429 7.29571 29.1023 7.24197C29.0617 7.18824 29.0046 7.14921 28.9398 7.13082Z" fill="var(--fill-0, white)"/>
</g>
<path id="Vector" d="M5.57143 14.8571L1 19.4286L5.57143 24M17 14.8571L21.5714 19.4286L17 24M13.5714 10.2857L9 28.5714" stroke="var(--stroke-0, white)" stroke-width="2" stroke-linecap="round" stroke-linejoin="round"/>
</g>
</svg>
