<svg preserveAspectRatio="none" width="100%" height="100%" overflow="visible" style="display: block;" viewBox="0 0 20.2585 19.5188" fill="none" xmlns="http://www.w3.org/2000/svg">
<g id="Group 28">
<g id="sparkle_8369316 (1) 16">
<path id="sparkle" d="M19.1108 4.62198L18.017 4.30942C17.5245 4.17056 17.0758 3.90761 16.714 3.54575C16.3521 3.18389 16.0892 2.73521 15.9503 2.24266L15.6377 1.1489C15.622 1.11063 15.5953 1.0779 15.5609 1.05486C15.5265 1.03183 15.4861 1.01953 15.4447 1.01953C15.4034 1.01953 15.3629 1.03183 15.3286 1.05486C15.2942 1.0779 15.2675 1.11063 15.2517 1.1489L14.9392 2.24266C14.8003 2.73521 14.5374 3.18389 14.1755 3.54575C13.8136 3.90761 13.365 4.17056 12.8724 4.30942L11.7787 4.62198C11.7367 4.6339 11.6997 4.6592 11.6734 4.69403C11.6471 4.72886 11.6328 4.77132 11.6328 4.81498C11.6328 4.85863 11.6471 4.9011 11.6734 4.93593C11.6997 4.97076 11.7367 4.99605 11.7787 5.00797L12.8724 5.32053C13.365 5.4594 13.8136 5.72234 14.1755 6.0842C14.5374 6.44607 14.8003 6.89474 14.9392 7.38729L15.2517 8.48106C15.2637 8.52305 15.289 8.56002 15.3238 8.58634C15.3586 8.61266 15.4011 8.6269 15.4447 8.6269C15.4884 8.6269 15.5309 8.61266 15.5657 8.58634C15.6005 8.56002 15.6258 8.52305 15.6377 8.48106L15.9503 7.38729C16.0892 6.89474 16.3521 6.44607 16.714 6.0842C17.0758 5.72234 17.5245 5.4594 18.017 5.32053L19.1108 5.00797C19.1528 4.99605 19.1898 4.97076 19.2161 4.93593C19.2424 4.9011 19.2566 4.85863 19.2566 4.81498C19.2566 4.77132 19.2424 4.72886 19.2161 4.69403C19.1898 4.6592 19.1528 4.6339 19.1108 4.62198Z" fill="var(--fill-0, #919191)"/>
</g>
<path id="Vector" d="M3.96296 9.62963L1 12.5926L3.96296 15.5556M11.3704 9.62963L14.3333 12.5926L11.3704 15.5556M9.14815 6.66667L6.18519 18.5185" stroke="var(--stroke-0, #919191)" stroke-width="2" stroke-linecap="round" stroke-linejoin="round"/>
</g>
</svg>
