<svg preserveAspectRatio="none" width="100%" height="100%" overflow="visible" style="display: block;" viewBox="0 0 17.6555 19.5" fill="none" xmlns="http://www.w3.org/2000/svg">
<g id="icon">
<path d="M8.82776 7.75C9.93233 7.75 10.8278 8.64543 10.8278 9.75C10.8278 10.8546 9.93233 11.75 8.82776 11.75C7.7232 11.75 6.82776 10.8546 6.82776 9.75C6.82776 8.64543 7.7232 7.75 8.82776 7.75Z" stroke="var(--stroke-0, #686B6E)" stroke-width="1.5" stroke-linecap="round" stroke-linejoin="round"/>
<path d="M3.72912 4.4969C2.79268 3.95624 1.59526 4.27709 1.0546 5.21353L1.01286 5.28583C0.471999 6.22263 0.792968 7.42051 1.72977 7.96137L1.97256 8.10155C2.54518 8.43215 2.82777 9.0888 2.82777 9.75C2.82777 10.4112 2.54518 11.0679 1.97256 11.3985L1.72977 11.5386C0.79297 12.0795 0.471999 13.2774 1.01286 14.2142L1.0546 14.2865C1.59526 15.2229 2.79268 15.5438 3.72913 15.0031L3.97322 14.8622C4.5458 14.5316 5.25107 14.613 5.82307 14.9446C6.39487 15.276 6.82776 15.8505 6.82776 16.5114V16.7927C6.82776 17.8737 7.70407 18.75 8.78504 18.75H8.87049C9.95146 18.75 10.8278 17.8737 10.8278 16.7927V16.5114C10.8278 15.8505 11.2607 15.2761 11.8325 14.9446C12.4045 14.613 13.1097 14.5316 13.6823 14.8622L13.9264 15.0031C14.8629 15.5438 16.0603 15.2229 16.601 14.2865L16.6427 14.2142C17.1835 13.2774 16.8626 12.0795 15.9258 11.5386L15.683 11.3985C15.1104 11.0679 14.8278 10.4112 14.8278 9.75C14.8278 9.0888 15.1104 8.43215 15.683 8.10155L15.9258 7.96137C16.8626 7.4205 17.1835 6.22262 16.6427 5.28581L16.601 5.21353C16.0603 4.27709 14.8629 3.95623 13.9264 4.49689L13.6823 4.63783C13.1097 4.9684 12.4045 4.88699 11.8325 4.55541C11.2607 4.22395 10.8278 3.64952 10.8278 2.98859V2.70728C10.8278 1.6263 9.95146 0.75 8.87049 0.75L8.78504 0.75C7.70407 0.75 6.82776 1.6263 6.82776 2.70727V2.98858C6.82776 3.64952 6.39487 4.22395 5.82306 4.55542C5.25107 4.88699 4.5458 4.9684 3.97322 4.63783L3.72912 4.4969Z" stroke="var(--stroke-0, #686B6E)" stroke-width="1.5" stroke-linecap="round" stroke-linejoin="round"/>
</g>
</svg>
