<svg preserveAspectRatio="none" width="100%" height="100%" overflow="visible" style="display: block;" viewBox="0 0 20 20" fill="none" xmlns="http://www.w3.org/2000/svg">
<g id="inbox-newsletter">
<path id="Vector" d="M3.125 10C3.125 12.2917 3.125 14.0625 3.125 15C3.125 15.9375 4.0625 16.875 5 16.875C5.9375 16.875 14.0625 16.875 15 16.875C15.9375 16.875 16.875 15.9375 16.875 15C16.875 14.0625 16.875 10 16.875 10M3.125 10H6.5625C6.5625 10 7.1875 12.1875 10 12.1875C12.8125 12.1875 13.4375 10 13.4375 10H16.875M3.125 10V12.1875M3.125 10L3.75 6.875M16.875 10L16.25 6.875M8.4375 5.625H11.5625M8.4375 8.125H11.5625M5.9375 8.125V3.125H14.0625V8.125" stroke="var(--stroke-0, #919191)" stroke-width="1.5" stroke-linecap="round" stroke-linejoin="round"/>
</g>
</svg>
