<svg preserveAspectRatio="none" width="100%" height="100%" overflow="visible" style="display: block;" viewBox="0 0 20 20" fill="none" xmlns="http://www.w3.org/2000/svg">
<g id="inbox-double">
<path id="Vector" d="M13.4375 6.875V6.125C13.1026 6.125 12.8084 6.34698 12.7164 6.66896L13.4375 6.875ZM16.875 6.875H17.625C17.625 6.75857 17.5979 6.64373 17.5458 6.53959L16.875 6.875ZM3.125 6.875L2.45418 6.53959C2.40211 6.64373 2.375 6.75857 2.375 6.875H3.125ZM6.5625 6.875L7.28364 6.66896C7.19165 6.34698 6.89736 6.125 6.5625 6.125V6.875ZM3.125 11.875H2.375C2.375 12.2892 2.71079 12.625 3.125 12.625V11.875ZM16.875 11.875V12.625C17.2892 12.625 17.625 12.2892 17.625 11.875H16.875ZM5 3.125V2.375C4.71592 2.375 4.45622 2.5355 4.32918 2.78959L5 3.125ZM15 3.125L15.6708 2.78959C15.5438 2.5355 15.2841 2.375 15 2.375V3.125ZM16.125 9.0625C16.125 9.47671 16.4608 9.8125 16.875 9.8125C17.2892 9.8125 17.625 9.47671 17.625 9.0625H16.875H16.125ZM2.375 8.75C2.375 9.16421 2.71079 9.5 3.125 9.5C3.53921 9.5 3.875 9.16421 3.875 8.75H3.125H2.375ZM3.125 8.125H2.375V15H3.125H3.875V8.125H3.125ZM3.125 15H2.375C2.375 15.7127 2.72379 16.3626 3.18061 16.8194C3.63743 17.2762 4.28733 17.625 5 17.625V16.875V16.125C4.77517 16.125 4.48757 16.005 4.24127 15.7587C3.99496 15.5124 3.875 15.2248 3.875 15H3.125ZM5 16.875V17.625H15V16.875V16.125H5V16.875ZM15 16.875V17.625C15.7127 17.625 16.3626 17.2762 16.8194 16.8194C17.2762 16.3626 17.625 15.7127 17.625 15H16.875H16.125C16.125 15.2248 16.005 15.5124 15.7587 15.7587C15.5124 16.005 15.2248 16.125 15 16.125V16.875ZM16.875 15H17.625V8.125H16.875H16.125V15H16.875ZM10 9.0625V9.8125C11.6288 9.8125 12.6831 9.16825 13.323 8.47909C13.6351 8.14306 13.8393 7.80708 13.9667 7.55221C14.0307 7.42427 14.0762 7.31504 14.1068 7.23391C14.1221 7.19327 14.1338 7.15948 14.1423 7.13368C14.1466 7.12077 14.15 7.10984 14.1527 7.10103C14.1541 7.09662 14.1552 7.09274 14.1562 7.0894C14.1567 7.08773 14.1572 7.0862 14.1576 7.08481C14.1578 7.08411 14.158 7.08345 14.1581 7.08282C14.1582 7.08251 14.1584 7.08206 14.1584 7.0819C14.1585 7.08147 14.1586 7.08104 13.4375 6.875C12.7164 6.66896 12.7165 6.66855 12.7166 6.66815C12.7166 6.66802 12.7167 6.66763 12.7168 6.66738C12.717 6.66689 12.7171 6.66642 12.7172 6.66599C12.7175 6.66513 12.7177 6.66439 12.7179 6.66377C12.7182 6.66254 12.7185 6.66179 12.7185 6.66152C12.7187 6.66099 12.7183 6.66234 12.7173 6.66545C12.7152 6.67169 12.7107 6.6849 12.7035 6.70408C12.689 6.74258 12.6636 6.80425 12.6251 6.88139C12.5474 7.03667 12.4196 7.24756 12.2238 7.45841C11.8482 7.863 11.1837 8.3125 10 8.3125V9.0625ZM13.4375 6.875V7.625H16.875V6.875V6.125H13.4375V6.875ZM3.125 6.875V7.625H6.5625V6.875V6.125H3.125V6.875ZM6.5625 6.875C5.84136 7.08104 5.84148 7.08147 5.8416 7.0819C5.84165 7.08206 5.84178 7.08251 5.84187 7.08282C5.84205 7.08345 5.84224 7.08411 5.84244 7.08481C5.84285 7.0862 5.8433 7.08773 5.84379 7.0894C5.84478 7.09274 5.84594 7.09662 5.84729 7.10103C5.85 7.10984 5.85344 7.12077 5.85768 7.13368C5.86616 7.15948 5.87785 7.19327 5.89319 7.23391C5.92382 7.31504 5.96931 7.42427 6.03328 7.55221C6.16072 7.80708 6.36494 8.14306 6.67697 8.47909C7.31691 9.16825 8.37124 9.8125 10 9.8125V9.0625V8.3125C8.81626 8.3125 8.15184 7.863 7.77616 7.45841C7.58037 7.24756 7.45257 7.03667 7.37492 6.88139C7.33635 6.80425 7.31104 6.74258 7.29651 6.70408C7.28926 6.6849 7.28478 6.67169 7.28273 6.66545C7.28171 6.66234 7.2813 6.66099 7.28146 6.66152C7.28155 6.66179 7.28177 6.66254 7.28214 6.66377C7.28232 6.66439 7.28254 6.66513 7.28279 6.66599C7.28291 6.66642 7.28305 6.66689 7.28319 6.66738C7.28326 6.66763 7.28337 6.66802 7.28341 6.66815C7.28353 6.66855 7.28364 6.66896 6.5625 6.875ZM10 14.0625V13.3125C8.63547 13.3125 7.99198 12.846 7.67882 12.4807C7.51143 12.2854 7.4149 12.0912 7.36102 11.9498C7.33422 11.8794 7.31866 11.8239 7.3105 11.7906C7.30645 11.774 7.30429 11.7632 7.30353 11.7592C7.30315 11.7572 7.30312 11.757 7.30338 11.7585C7.30351 11.7593 7.30371 11.7606 7.30398 11.7623C7.30411 11.7632 7.30426 11.7641 7.30443 11.7652C7.30451 11.7658 7.30459 11.7664 7.30468 11.767C7.30473 11.7673 7.3048 11.7678 7.30482 11.7679C7.30489 11.7684 7.30496 11.7689 6.5625 11.875C5.82004 11.9811 5.82011 11.9816 5.82019 11.9821C5.82021 11.9823 5.82029 11.9828 5.82035 11.9832C5.82046 11.984 5.82057 11.9847 5.82069 11.9856C5.82093 11.9872 5.8212 11.989 5.8215 11.9909C5.82209 11.9947 5.82279 11.9991 5.8236 12.004C5.82524 12.0139 5.82735 12.0259 5.83002 12.0399C5.83536 12.0679 5.84297 12.1042 5.85356 12.1474C5.87469 12.2337 5.90797 12.3491 5.95929 12.4838C6.06166 12.7525 6.23857 13.1053 6.53993 13.4568C7.16427 14.1852 8.23953 14.8125 10 14.8125V14.0625ZM6.5625 11.875V11.125H3.125V11.875V12.625H6.5625V11.875ZM16.875 11.875V11.125H13.4375V11.875V12.625H16.875V11.875ZM13.4375 11.875C12.695 11.7689 12.6951 11.7684 12.6952 11.7679C12.6952 11.7678 12.6953 11.7673 12.6953 11.767C12.6954 11.7664 12.6955 11.7658 12.6956 11.7652C12.6957 11.7641 12.6959 11.7632 12.696 11.7623C12.6963 11.7606 12.6965 11.7593 12.6966 11.7585C12.6969 11.757 12.6969 11.7572 12.6965 11.7592C12.6957 11.7632 12.6936 11.774 12.6895 11.7906C12.6813 11.8239 12.6658 11.8794 12.639 11.9498C12.5851 12.0912 12.4886 12.2854 12.3212 12.4807C12.008 12.846 11.3645 13.3125 10 13.3125V14.0625V14.8125C11.7605 14.8125 12.8357 14.1852 13.4601 13.4568C13.7614 13.1053 13.9383 12.7525 14.0407 12.4838C14.092 12.3491 14.1253 12.2337 14.1464 12.1474C14.157 12.1042 14.1646 12.0679 14.17 12.0399C14.1727 12.0259 14.1748 12.0139 14.1764 12.004C14.1772 11.9991 14.1779 11.9947 14.1785 11.9909C14.1788 11.989 14.1791 11.9872 14.1793 11.9856C14.1794 11.9847 14.1795 11.984 14.1797 11.9832C14.1797 11.9828 14.1798 11.9823 14.1798 11.9821C14.1799 11.9816 14.18 11.9811 13.4375 11.875ZM16.875 6.875H16.125V11.875H16.875H17.625V6.875H16.875ZM3.125 11.875H3.875V6.875H3.125H2.375V11.875H3.125ZM5 3.125V3.875H15V3.125V2.375H5V3.125ZM15 3.125L14.3292 3.46041L16.2042 7.21041L16.875 6.875L17.5458 6.53959L15.6708 2.78959L15 3.125ZM16.875 6.875H16.125V9.0625H16.875H17.625V6.875H16.875ZM5 3.125L4.32918 2.78959L2.45418 6.53959L3.125 6.875L3.79582 7.21041L5.67082 3.46041L5 3.125ZM3.125 6.875H2.375V8.75H3.125H3.875V6.875H3.125ZM6.5625 11.875V12.625H13.4375V11.875V11.125H6.5625V11.875Z" fill="var(--stroke-0, #919191)"/>
</g>
</svg>
