<svg preserveAspectRatio="none" width="100%" height="100%" overflow="visible" style="display: block;" viewBox="0 0 32 32" fill="none" xmlns="http://www.w3.org/2000/svg">
<g id="inbox">
<path id="Vector" d="M5 16C5 19.6667 5 22.5 5 24C5 25.5 6.5 27 8 27C9.5 27 22.5 27 24 27C25.5 27 27 25.5 27 24C27 22.5 27 16 27 16M5 16H10.5C10.5 16 12 19.5 16 19.5C20 19.5 21.5 16 21.5 16H27M5 16L9 5H23L27 16M5 16V19.5M27 16V19.5" stroke="var(--stroke-0, white)" stroke-width="2" stroke-linecap="round" stroke-linejoin="round"/>
</g>
</svg>
