<svg preserveAspectRatio="none" width="100%" height="100%" overflow="visible" style="display: block;" viewBox="0 0 20 20" fill="none" xmlns="http://www.w3.org/2000/svg">
<g id="icon">
<path id="Vector" fill-rule="evenodd" clip-rule="evenodd" d="M10 2.57046C5.89731 2.57046 2.57143 5.89634 2.57143 9.99901C2.57143 14.1017 5.89731 17.4276 10 17.4276C14.1027 17.4276 17.4286 14.1017 17.4286 9.99901C17.4286 5.89634 14.1027 2.57046 10 2.57046ZM1 9.99901C1 5.02846 5.02944 0.999023 10 0.999023C14.9706 0.999023 19 5.02846 19 9.99901C19 14.9696 14.9706 18.999 10 18.999C5.02944 18.999 1 14.9696 1 9.99901Z" fill="var(--fill-0, #686B6E)"/>
<path id="Vector_2" d="M9.76222 11.7405C10.155 11.7405 10.3513 11.5037 10.4091 11.1225C10.4553 10.5969 10.6401 10.3197 11.3967 9.88074C12.1822 9.41291 12.6212 8.80647 12.6212 7.92278C12.6212 6.61748 11.5469 5.72803 9.98169 5.72803C8.79191 5.72803 7.89091 6.21318 7.53281 6.99868C7.42308 7.21816 7.37109 7.43186 7.37109 7.68021C7.37109 8.06718 7.60789 8.30976 8.00642 8.30976C8.32408 8.30976 8.53778 8.16537 8.66485 7.80727C8.84967 7.22393 9.27707 6.90627 9.91817 6.90627C10.6286 6.90627 11.1195 7.34521 11.1195 7.97477C11.1195 8.52923 10.8769 8.8469 10.1607 9.28007C9.43878 9.70747 9.08069 10.1811 9.08069 10.8973V11.007C9.08069 11.4286 9.32327 11.7405 9.76222 11.7405ZM9.77378 14.2471C10.2416 14.2471 10.6113 13.8833 10.6113 13.427C10.6113 12.9707 10.2416 12.6126 9.77378 12.6126C9.30595 12.6126 8.93052 12.9707 8.93052 13.427C8.93052 13.8833 9.30595 14.2471 9.77378 14.2471Z" fill="var(--fill-0, #686B6E)"/>
</g>
</svg>
