<svg preserveAspectRatio="none" width="100%" height="100%" overflow="visible" style="display: block;" viewBox="0 0 16.0008 21" fill="none" xmlns="http://www.w3.org/2000/svg">
<g id="Frame">
<path id="Vector" fill-rule="evenodd" clip-rule="evenodd" d="M16.0008 10.6808C16.0008 10.1226 15.9488 9.58568 15.8524 9.07031H8.16406V12.116H12.5574C12.3681 13.1002 11.793 13.9341 10.9284 14.4924V16.4678H13.5667C15.1103 15.0971 16.0008 13.0786 16.0008 10.6808Z" fill="var(--fill-0, #4285F4)"/>
<path id="Vector_2" fill-rule="evenodd" clip-rule="evenodd" d="M8.16206 18.3697C10.3661 18.3697 12.214 17.6647 13.5647 16.4622L10.9264 14.4866C10.1954 14.959 9.26038 15.2382 8.16206 15.2382C6.03599 15.2382 4.23626 13.8531 3.59426 11.9922H0.867188V14.0321C2.21032 16.6053 4.97095 18.3697 8.16206 18.3697Z" fill="var(--fill-0, #34A853)"/>
<path id="Vector_3" fill-rule="evenodd" clip-rule="evenodd" d="M3.59547 11.9929C3.4322 11.5205 3.3395 11.0158 3.3395 10.4969C3.3395 9.97799 3.43229 9.47339 3.59556 9.00098V6.96094H0.8683C0.296853 8.05814 -0.00049824 9.26911 6.26673e-07 10.4969C6.26673e-07 11.7674 0.315375 12.9699 0.8683 14.0329L3.59547 11.9929Z" fill="var(--fill-0, #FBBC05)"/>
<path id="Vector_4" fill-rule="evenodd" clip-rule="evenodd" d="M8.16217 5.75648C9.36072 5.75648 10.4367 6.15374 11.2828 6.93401L13.6241 4.6757C12.2104 3.40518 10.3625 2.625 8.16217 2.625C4.97104 2.625 2.21041 4.38937 0.867188 6.96261L3.59435 9.00256C4.23635 7.14152 6.03599 5.75648 8.16217 5.75648Z" fill="var(--fill-0, #35EA80)"/>
</g>
</svg>
